<?xml version="1.0" encoding="UTF-8" standalone="no"?>
<!DOCTYPE svg PUBLIC "-//W3C//DTD SVG 1.1//EN" "http://www.w3.org/Graphics/SVG/1.1/DTD/svg11.dtd">
<svg width="100%" height="100%" viewBox="0 0 72 158" version="1.1" xmlns="http://www.w3.org/2000/svg" xmlns:xlink="http://www.w3.org/1999/xlink" xml:space="preserve" xmlns:serif="http://www.serif.com/" style="fill-rule:evenodd;clip-rule:evenodd;stroke-linejoin:round;stroke-miterlimit:2;">
    <g transform="matrix(1,0,0,1,-960,-461.36)">
        <g transform="matrix(0.413895,0,0,0.413895,787.948,411.693)">
            <path d="M484.97,120L415.69,160L415.69,360L484.97,400L519.61,380L519.61,260L554.25,240L554.25,400L450.33,460L450.33,500L588.89,420L588.89,180L450.33,260L450.33,180L484.97,160L484.97,200L519.61,180L519.61,140L484.97,120ZM450.33,340L450.33,260L484.97,280L484.97,360L450.33,340Z" style="fill:rgb(252,252,252);"/>
        </g>
    </g>
</svg>
