<?xml version="1.0" encoding="UTF-8" standalone="no"?>
<!DOCTYPE svg PUBLIC "-//W3C//DTD SVG 1.1//EN" "http://www.w3.org/Graphics/SVG/1.1/DTD/svg11.dtd">
<svg width="100%" height="100%" viewBox="0 0 29 29" version="1.1" xmlns="http://www.w3.org/2000/svg" xmlns:xlink="http://www.w3.org/1999/xlink" xml:space="preserve" xmlns:serif="http://www.serif.com/" style="fill-rule:evenodd;clip-rule:evenodd;stroke-linejoin:round;stroke-miterlimit:2;">
    <g transform="matrix(1,0,0,1,-169.049,-422.967)">
        <g id="MUSIC-ICON" serif:id="MUSIC ICON">
            <path d="M183.51,422.967C191.492,422.967 197.971,429.446 197.971,437.428C197.971,445.409 191.492,451.889 183.51,451.889C175.529,451.889 169.049,445.409 169.049,437.428C169.049,429.446 175.529,422.967 183.51,422.967ZM191.992,434.236C192.232,434.887 192.427,435.914 192.427,437.029C192.427,438.143 192.232,439.17 191.992,439.822C192.792,439.822 193.44,438.57 193.44,437.029C193.44,435.487 192.792,434.236 191.992,434.236ZM180.974,443.271C180.254,442.069 179.779,440.001 179.779,437.652C179.779,435.113 180.335,432.902 181.154,431.759C179.218,433.07 177.371,434.12 175.593,434.971C175.397,435.065 175.201,435.157 175.033,435.305C174.139,435.716 173.58,436.625 173.617,437.609C173.654,438.592 174.279,439.457 175.201,439.801C177.027,440.583 178.94,441.684 180.974,443.271ZM182.332,430.936C182.363,430.933 182.395,430.932 182.426,430.932C181.33,431.492 180.441,434.31 180.441,437.652C180.441,440.994 181.33,443.812 182.426,444.372C182.386,444.372 182.346,444.37 182.306,444.365C182.333,444.389 182.361,444.413 182.389,444.437C183.04,444.968 183.91,445.145 184.716,444.91C185.523,444.676 186.163,444.06 186.428,443.263C188.033,438.591 187.744,434.48 185.981,430.787C185.744,430.324 185.314,429.989 184.807,429.873C184.3,429.757 183.767,429.871 183.352,430.185C183.009,430.443 182.669,430.694 182.332,430.936ZM183.769,434.236C184.51,434.236 185.111,435.741 185.111,437.594C185.111,439.448 184.51,440.953 183.769,440.953C183.028,440.953 182.426,439.448 182.426,437.594C182.426,435.741 183.028,434.236 183.769,434.236ZM183.827,436.617C183.547,436.617 183.32,437.093 183.32,437.679C183.32,438.266 183.547,438.742 183.827,438.742C184.107,438.742 184.335,438.266 184.335,437.679C184.335,437.093 184.107,436.617 183.827,436.617ZM188.093,432.605C188.401,433.672 188.652,435.355 188.652,437.179C188.652,439.004 188.401,440.686 188.093,441.753C189.121,441.753 189.956,439.704 189.956,437.179C189.956,434.655 189.121,432.605 188.093,432.605Z" style="fill:white;"/>
        </g>
    </g>
</svg>
