<?xml version="1.0" encoding="UTF-8" standalone="no"?>
<!DOCTYPE svg PUBLIC "-//W3C//DTD SVG 1.1//EN" "http://www.w3.org/Graphics/SVG/1.1/DTD/svg11.dtd">
<svg width="100%" height="100%" viewBox="0 0 29 29" version="1.1" xmlns="http://www.w3.org/2000/svg" xmlns:xlink="http://www.w3.org/1999/xlink" xml:space="preserve" xmlns:serif="http://www.serif.com/" style="fill-rule:evenodd;clip-rule:evenodd;stroke-linejoin:round;stroke-miterlimit:2;">
    <g transform="matrix(1,0,0,1,-113.658,-221.471)">
        <g id="ART-ICON" serif:id="ART ICON">
            <path d="M128.119,221.471C136.1,221.471 142.58,227.951 142.58,235.932C142.58,243.914 136.1,250.393 128.119,250.393C120.137,250.393 113.658,243.914 113.658,235.932C113.658,227.951 120.137,221.471 128.119,221.471ZM130.22,237.917C131.005,238.77 131.783,239.602 132.531,240.374C132.979,240.837 133.409,241.285 133.848,241.672C134.348,242.114 134.826,242.48 135.292,242.811C135.883,243.232 136.383,243.536 136.854,243.806C137.936,244.427 138.526,244.665 138.526,244.665C138.526,244.665 138.29,243.99 137.698,242.763C137.441,242.229 137.153,241.663 136.76,240.997C136.451,240.473 136.111,239.936 135.705,239.377C135.349,238.887 134.943,238.41 134.522,237.914C133.904,237.183 133.244,236.428 132.568,235.666C135.535,232.647 138.303,229.524 138.303,229.524C138.579,229.275 138.601,228.849 138.353,228.573C138.104,228.297 137.677,228.275 137.401,228.523C137.401,228.523 134.011,230.949 130.702,233.586C130.435,233.29 130.168,232.996 129.903,232.704C129.314,232.054 128.732,231.417 128.171,230.805C128.239,230.789 128.302,230.756 128.355,230.709L128.473,230.604C128.556,230.53 128.606,230.425 128.612,230.314C128.619,230.202 128.58,230.093 128.506,230.009L125.08,226.178C124.921,226 124.707,225.902 124.486,225.887C123.814,225.174 123.138,224.661 123.138,224.661C122.407,223.868 121.242,223.942 120.539,224.825C119.835,225.709 119.857,227.071 120.588,227.864C120.588,227.864 121.099,228.651 121.781,229.398C122.071,229.716 122.38,230.043 122.705,230.258C122.815,230.331 122.908,230.382 123.025,230.398C123.251,230.428 123.283,230.406 123.43,230.354C124.645,231.735 126.19,233.477 127.82,235.279C127.947,235.419 128.074,235.56 128.202,235.701C127.447,236.362 126.75,236.984 126.159,237.517C125.754,237.538 125.35,237.663 124.987,237.898C122.784,239.325 118.946,244.665 118.946,244.665C118.946,244.665 125.389,243.348 127.592,241.922C128.459,241.36 128.843,240.33 128.626,239.377C129.115,238.935 129.654,238.442 130.22,237.917Z" style="fill:white;"/>
        </g>
    </g>
</svg>
