<?xml version="1.0" encoding="UTF-8" standalone="no"?>
<!DOCTYPE svg PUBLIC "-//W3C//DTD SVG 1.1//EN" "http://www.w3.org/Graphics/SVG/1.1/DTD/svg11.dtd">
<svg width="100%" height="100%" viewBox="0 0 48 44" version="1.1" xmlns="http://www.w3.org/2000/svg" xmlns:xlink="http://www.w3.org/1999/xlink" xml:space="preserve" xmlns:serif="http://www.serif.com/" style="fill-rule:evenodd;clip-rule:evenodd;stroke-linejoin:round;stroke-miterlimit:2;">
    <g transform="matrix(1,0,0,1,-1787.33,-663.789)">
        <g transform="matrix(0.11502,0,0,0.11502,1392.14,544.288)">
            <path id="QB64-ICON" serif:id="QB64 ICON" d="M3435.81,1038.96L3853.05,1038.96L3853.05,1415.46L3435.81,1415.46L3435.81,1038.96ZM3467.85,1064.42L3467.85,1202.76L3514.96,1202.76L3514.96,1229.52L3568.79,1229.52L3568.79,1202.76L3616.1,1202.76L3616.1,1064.42L3467.85,1064.42ZM3515.16,1093.06L3577.35,1093.06L3577.35,1113.59L3565.35,1113.59L3565.35,1176.09L3515.16,1176.09L3515.16,1093.06ZM3467.85,1253.19L3467.85,1391.53L3627.24,1391.53L3627.24,1316.04L3515.2,1316.04L3515.2,1279.79L3627.24,1279.79L3627.24,1253.19L3467.85,1253.19ZM3515.16,1340.75L3579.93,1340.75L3579.93,1364.87L3515.16,1364.87L3515.16,1340.75ZM3654.2,1253.19L3654.19,1341.97L3767.17,1341.97L3767.17,1391.53L3813.58,1391.53L3813.58,1253.19L3767.31,1253.19L3767.31,1316.04L3704.79,1316.04C3704.74,1295.36 3704.84,1272.31 3704.84,1253.19L3654.2,1253.19ZM3655,1064.42L3655,1202.76L3814.39,1202.76L3814.39,1152.18L3793.5,1152.18L3793.5,1113.7L3814.39,1113.7L3814.39,1064.42L3655,1064.42ZM3702.32,1093.06L3767.08,1093.06L3767.08,1116.33L3702.32,1116.33L3702.32,1093.06ZM3702.32,1151.98L3767.08,1151.98L3767.08,1176.09L3702.32,1176.09L3702.32,1151.98Z" style="fill:white;fill-rule:nonzero;"/>
        </g>
    </g>
</svg>
