<?xml version="1.0" encoding="UTF-8" standalone="no"?>
<!DOCTYPE svg PUBLIC "-//W3C//DTD SVG 1.1//EN" "http://www.w3.org/Graphics/SVG/1.1/DTD/svg11.dtd">
<svg width="100%" height="100%" viewBox="0 0 29 29" version="1.1" xmlns="http://www.w3.org/2000/svg" xmlns:xlink="http://www.w3.org/1999/xlink" xml:space="preserve" xmlns:serif="http://www.serif.com/" style="fill-rule:evenodd;clip-rule:evenodd;stroke-linejoin:round;stroke-miterlimit:2;">
    <g transform="matrix(1,0,0,1,-163.07,-934.497)">
        <path d="M177.531,934.497C185.513,934.497 191.992,940.977 191.992,948.958C191.992,956.94 185.513,963.419 177.531,963.419C169.55,963.419 163.07,956.94 163.07,948.958C163.07,940.977 169.55,934.497 177.531,934.497ZM188.093,948.179C188.093,943.729 183.508,940.117 177.86,940.117C172.212,940.117 167.627,943.729 167.627,948.179C167.627,949.882 168.311,951.541 169.582,952.918L167.627,957.799L173.385,955.428C174.779,955.962 176.309,956.24 177.86,956.24C183.508,956.24 188.093,952.628 188.093,948.179ZM177.892,951.687L175.964,950.989L178.23,942.75C178.299,942.5 178.469,942.29 178.7,942.17C178.93,942.051 179.2,942.033 179.444,942.122L180.488,942.5C180.725,942.585 180.917,942.763 181.02,942.992C181.124,943.221 181.13,943.483 181.038,943.717L177.892,951.687ZM177.141,953.792C177.061,954.022 176.893,954.211 176.674,954.317C176.455,954.422 176.203,954.437 175.973,954.357L175.591,954.224C175.361,954.144 175.172,953.975 175.066,953.756C174.961,953.537 174.946,953.285 175.026,953.055L175.222,952.492C175.298,952.274 175.458,952.095 175.666,951.995C175.874,951.895 176.113,951.881 176.331,951.957L176.802,952.121C177.02,952.197 177.199,952.357 177.299,952.564C177.4,952.772 177.414,953.012 177.338,953.23L177.141,953.792Z" style="fill:white;"/>
    </g>
</svg>
