<?xml version="1.0" encoding="UTF-8" standalone="no"?>
<!DOCTYPE svg PUBLIC "-//W3C//DTD SVG 1.1//EN" "http://www.w3.org/Graphics/SVG/1.1/DTD/svg11.dtd">
<svg width="100%" height="100%" viewBox="0 0 48 47" version="1.1" xmlns="http://www.w3.org/2000/svg" xmlns:xlink="http://www.w3.org/1999/xlink" xml:space="preserve" xmlns:serif="http://www.serif.com/" style="fill-rule:evenodd;clip-rule:evenodd;stroke-linejoin:round;stroke-miterlimit:2;">
    <g transform="matrix(1,0,0,1,-1787.86,-366.115)">
        <g id="icon-soundcloud.svg" transform="matrix(0.311021,0,0,0.311021,1811.5,389.597)">
            <g transform="matrix(1,0,0,1,-76,-75.5)">
                <g id="A">
                    <g>
                        <path d="M0,22.5C0,10.035 10.035,0 22.5,0L127.5,0C139.965,0 150,10.035 150,22.5L150,127.5C150,139.965 139.965,150 127.5,150L22.5,150C10.035,150 0,139.965 0,127.5L0,22.5ZM17.285,79.101L16.406,85.546L17.285,91.991C17.285,92.577 18.164,92.577 18.164,91.991L19.043,85.546L18.164,79.101C18.164,78.222 17.285,78.222 17.285,79.101ZM39.843,66.211L38.964,85.547L39.55,97.266C39.55,99.61 41.601,99.61 41.601,97.266L42.773,85.547L41.601,66.211C41.601,64.746 39.843,64.746 39.843,66.211ZM22.558,75C22.558,74.121 21.679,74.121 21.679,75L20.214,85.547L21.386,95.801C21.386,96.68 22.558,96.68 22.558,95.801L23.73,85.547L22.558,75ZM71.191,97.265L71.777,85.546L71.191,55.663C71.191,53.612 68.261,53.612 68.261,55.663L67.675,85.546L68.261,97.265C68.261,99.609 71.191,99.609 71.191,97.265ZM51.269,97.265L52.148,85.546L51.269,59.765C51.269,58.007 49.218,58.007 49.218,59.765L48.339,85.546L48.925,97.265C48.925,99.609 51.269,99.609 51.269,97.265ZM61.23,97.265L62.109,85.546L61.23,59.472C61.23,57.714 58.593,57.714 58.593,59.472L58.007,85.546L58.593,97.265C58.593,99.609 61.23,99.609 61.23,97.265ZM30.762,72.656L29.59,85.547L30.469,97.266C30.469,99.024 31.934,99.024 31.934,97.266L33.106,85.547L31.934,72.656C31.934,71.777 30.762,71.777 30.762,72.656ZM113.673,71.191C112.208,54.492 94.922,43.652 79.102,49.804C77.93,50.39 77.637,50.683 77.637,51.562L77.637,97.265C77.637,98.144 78.223,99.023 79.102,99.023L119.239,99.023C127.149,99.023 133.595,92.578 133.595,84.667C133.595,73.827 123.34,67.969 113.673,71.191ZM36.914,97.265L37.793,85.546L36.914,73.534C36.914,72.655 35.156,72.655 35.156,73.534L34.277,85.546L35.156,97.265C35.156,99.316 36.914,99.316 36.914,97.265ZM27.246,97.265L28.418,85.546L27.246,72.948C27.246,72.069 26.074,72.069 26.074,72.948L24.902,85.546L26.074,97.265C26.074,98.437 27.246,98.437 27.246,97.265ZM46.582,97.266L47.461,85.546L46.582,61.816C46.582,60.058 44.531,60.058 44.531,61.816L43.652,85.547L44.238,97.266C44.238,99.61 46.582,99.61 46.582,97.266ZM63.574,60.644L62.988,85.546L63.281,97.265C63.281,99.609 66.211,99.609 66.211,97.265L66.797,85.546L66.211,60.644C66.211,58.593 63.574,58.593 63.574,60.644ZM73.242,53.028L72.363,85.547L73.242,97.266C73.242,99.61 76.172,99.61 76.172,97.266L77.051,85.547L76.172,53.028C76.172,50.977 73.242,50.977 73.242,53.028ZM56.25,97.265L57.129,85.546L56.25,58.886C56.25,57.128 53.906,57.128 53.906,58.886L53.027,85.546L53.906,97.265C53.906,99.609 56.25,99.609 56.25,97.265Z" style="fill:white;fill-rule:nonzero;"/>
                    </g>
                </g>
            </g>
        </g>
    </g>
</svg>
