<?xml version="1.0" encoding="UTF-8" standalone="no"?>
<!DOCTYPE svg PUBLIC "-//W3C//DTD SVG 1.1//EN" "http://www.w3.org/Graphics/SVG/1.1/DTD/svg11.dtd">
<svg width="100%" height="100%" viewBox="0 0 29 29" version="1.1" xmlns="http://www.w3.org/2000/svg" xmlns:xlink="http://www.w3.org/1999/xlink" xml:space="preserve" xmlns:serif="http://www.serif.com/" style="fill-rule:evenodd;clip-rule:evenodd;stroke-linejoin:round;stroke-miterlimit:2;">
    <g transform="matrix(1,0,0,1,-152.18,-765.577)">
        <g id="CODE-ICON" serif:id="CODE ICON">
            <path d="M166.641,765.577C174.623,765.577 181.102,772.056 181.102,780.038C181.102,788.019 174.623,794.499 166.641,794.499C158.66,794.499 152.18,788.019 152.18,780.038C152.18,772.056 158.66,765.577 166.641,765.577ZM167.955,770.804C167.076,770.694 166.186,770.712 165.313,770.859L165.113,773.131C164.371,773.319 163.666,773.628 163.025,774.046L161.219,772.653C160.519,773.197 159.903,773.839 159.388,774.56L160.854,776.308C160.463,776.965 160.183,777.683 160.025,778.432L157.763,778.724C157.652,779.603 157.671,780.493 157.817,781.366L160.089,781.566C160.277,782.308 160.587,783.013 161.005,783.654L159.612,785.46C160.155,786.16 160.797,786.776 161.518,787.291L163.266,785.825C163.924,786.216 164.641,786.496 165.39,786.654L165.682,788.916C166.561,789.027 167.451,789.008 168.325,788.862L168.524,786.59C169.266,786.402 169.971,786.093 170.612,785.674L172.419,787.067C173.118,786.524 173.735,785.882 174.249,785.161L172.783,783.413C173.175,782.755 173.455,782.038 173.612,781.289L175.875,780.997C175.985,780.118 175.967,779.228 175.82,778.354L173.548,778.155C173.36,777.413 173.051,776.708 172.633,776.067L174.026,774.26C173.482,773.561 172.84,772.944 172.119,772.43L170.371,773.896C169.714,773.504 168.996,773.224 168.247,773.067L167.955,770.804ZM166.765,777.237C168.213,777.207 169.412,778.359 169.442,779.807C169.472,781.255 168.32,782.454 166.872,782.484C165.424,782.513 164.225,781.362 164.195,779.914C164.166,778.466 165.317,777.267 166.765,777.237Z" style="fill:white;"/>
        </g>
    </g>
</svg>
