<?xml version="1.0" encoding="UTF-8" standalone="no"?>
<!DOCTYPE svg PUBLIC "-//W3C//DTD SVG 1.1//EN" "http://www.w3.org/Graphics/SVG/1.1/DTD/svg11.dtd">
<svg width="100%" height="100%" viewBox="0 0 29 29" version="1.1" xmlns="http://www.w3.org/2000/svg" xmlns:xlink="http://www.w3.org/1999/xlink" xml:space="preserve" xmlns:serif="http://www.serif.com/" style="fill-rule:evenodd;clip-rule:evenodd;stroke-linejoin:round;stroke-miterlimit:2;">
    <g transform="matrix(1,0,0,1,-192.716,-596.93)">
        <g id="DESIGN-ICON" serif:id="DESIGN ICON">
            <path d="M207.177,596.93C215.159,596.93 221.638,603.41 221.638,611.391C221.638,619.372 215.159,625.852 207.177,625.852C199.196,625.852 192.716,619.372 192.716,611.391C192.716,603.41 199.196,596.93 207.177,596.93ZM218.762,607.759L213.565,602.772L203.169,602.772L197.971,607.759L218.762,607.759ZM205.457,606.433C205.064,606.171 204.812,605.741 204.812,605.266C204.812,604.791 205.064,604.36 205.457,604.098C205.606,603.999 205.774,603.924 205.957,603.88C206.08,603.85 206.209,603.834 206.342,603.834C206.476,603.834 206.605,603.85 206.727,603.88C206.91,603.924 207.079,603.999 207.227,604.098C207.62,604.36 207.873,604.791 207.873,605.266C207.873,605.741 207.62,606.171 207.227,606.433C207.079,606.532 206.91,606.607 206.727,606.652C206.605,606.681 206.476,606.697 206.342,606.697C206.209,606.697 206.08,606.681 205.957,606.652C205.774,606.607 205.606,606.532 205.457,606.433ZM205.457,604.789C205.365,604.928 205.312,605.091 205.312,605.266C205.312,605.44 205.365,605.603 205.457,605.743C205.572,605.916 205.748,606.053 205.957,606.13C206.076,606.173 206.206,606.197 206.342,606.197C206.478,606.197 206.608,606.173 206.727,606.13C206.937,606.053 207.113,605.916 207.227,605.743C207.32,605.603 207.373,605.44 207.373,605.266C207.373,605.091 207.32,604.928 207.227,604.789C207.113,604.615 206.937,604.478 206.727,604.402C206.608,604.358 206.478,604.334 206.342,604.334C206.206,604.334 206.076,604.358 205.957,604.402C205.748,604.478 205.572,604.615 205.457,604.789ZM205.957,602.272L206.727,602.272L206.727,601.158C206.664,601.137 206.485,601.08 206.342,601.08C206.2,601.08 206.021,601.137 205.957,601.158L205.957,602.272ZM205.457,608.259L203.415,608.259L203.415,611.28L205.457,611.28L205.457,608.259ZM208.999,608.259L207.227,608.259L207.227,611.28L208.999,611.28L208.999,608.259ZM205.957,614.675L205.957,622.402C206.021,622.424 206.2,622.481 206.342,622.481C206.485,622.481 206.664,622.424 206.727,622.402L206.727,614.675L205.957,614.675ZM203.415,602.272L205.457,602.272L205.457,601.091C205.457,600.98 205.507,600.867 205.623,600.775C205.758,600.668 206.028,600.58 206.342,600.58C206.657,600.58 206.926,600.668 207.062,600.775C207.178,600.867 207.227,600.98 207.227,601.091L207.227,602.272L208.999,602.272L208.999,599.102L203.415,599.102L203.415,602.272ZM206.727,608.259L205.957,608.259L205.957,611.28L206.727,611.28L206.727,608.259ZM204.38,614.175L214.775,614.175L219.973,611.78L199.182,611.78L204.38,614.175ZM207.227,614.675L207.227,622.469C207.227,622.58 207.178,622.693 207.062,622.785C206.926,622.893 206.657,622.981 206.342,622.981C206.028,622.981 205.758,622.893 205.623,622.785C205.507,622.693 205.457,622.58 205.457,622.469L205.457,614.675L204.38,614.675L204.17,614.629L203.415,614.281L203.415,622.933C203.415,623.775 204.098,624.458 204.94,624.458L207.474,624.458C208.316,624.458 208.999,623.775 208.999,622.933L208.999,614.675L207.227,614.675Z" style="fill:white;"/>
        </g>
    </g>
</svg>
