<?xml version="1.0" encoding="UTF-8" standalone="no"?>
<!DOCTYPE svg PUBLIC "-//W3C//DTD SVG 1.1//EN" "http://www.w3.org/Graphics/SVG/1.1/DTD/svg11.dtd">
<svg width="100%" height="100%" viewBox="0 0 48 44" version="1.1" xmlns="http://www.w3.org/2000/svg" xmlns:xlink="http://www.w3.org/1999/xlink" xml:space="preserve" xmlns:serif="http://www.serif.com/" style="fill-rule:evenodd;clip-rule:evenodd;stroke-linejoin:round;stroke-miterlimit:2;">
    <g transform="matrix(1,0,0,1,-1787.57,-442.906)">
        <g transform="matrix(0.0927701,0,0,0.0927701,1403.36,217.431)">
            <path id="_16-COLORS-ICON" serif:id="16 COLORS ICON" d="M4653.57,2548.33L4653.57,2784.05C4653.57,2849.11 4600.75,2901.92 4535.7,2901.92L4259.43,2901.92C4194.38,2901.92 4141.57,2849.11 4141.57,2784.05L4141.57,2548.33C4141.57,2483.28 4194.38,2430.47 4259.43,2430.47L4535.7,2430.47C4600.75,2430.47 4653.57,2483.28 4653.57,2548.33ZM4428.7,2575.01L4428.7,2595.77L4407.94,2595.77L4407.94,2741.08L4428.7,2741.08L4428.7,2761.84L4532.49,2761.84L4532.49,2741.08L4553.25,2741.08L4553.25,2658.05L4532.49,2658.05L4532.49,2637.29L4449.46,2637.29L4449.46,2595.77L4470.22,2595.77L4470.22,2575.01L4511.73,2575.01L4511.73,2554.25L4449.46,2554.25L4449.46,2575.01L4428.7,2575.01ZM4511.73,2658.05L4511.73,2741.08L4449.46,2741.08L4449.46,2658.05L4511.73,2658.05ZM4241.88,2595.77L4241.88,2616.53L4283.39,2616.53L4283.39,2741.08L4241.88,2741.08L4241.88,2761.84L4366.43,2761.84L4366.43,2741.08L4324.91,2741.08L4324.91,2554.25L4283.39,2554.25L4283.39,2575.01L4262.64,2575.01L4262.64,2595.77L4241.88,2595.77Z" style="fill:white;"/>
        </g>
    </g>
</svg>
